<svg xmlns="http://www.w3.org/2000/svg" width="1875" height="1875" viewBox="0 0 1875 1875">
  <defs>
    <style>
      .cls-1 {
        fill: #44f2ff;
        fill-rule: evenodd;
      }
    </style>
  </defs>
  <path id="R." class="cls-1" d="M1383.27,440.5c-15.22,0-23.52-11.066-37.35-11.066-1.38-2.767-8.3-13.834-8.3-2.767L1322.4,415.6c-6.91,0-13.83-4.15-20.75-4.15L1290.59,399c-11.07-1.383-23.52-5.533-31.82-12.45l-5.53,5.534-12.45-1.384c0,1.384,0,5.534-2.77,5.534s-5.53-2.767-8.3-5.534h-13.83l-4.15-5.533-35.97-2.767c-2.77-4.15-11.07-4.15-15.22-4.15s-15.21,0-13.83-6.916c-12.45,0-30.43-5.534-45.65-6.917,1.38-4.15,11.07-37.35,11.07-40.117,0-5.533,5.53-6.917,5.53-12.45,0-2.766,0-9.683-5.53-9.683-6.92,0-2.77,15.216-11.07,12.45v12.45l-9.68-1.383v8.3l-5.54,11.066-12.45,5.533,2.77-12.449,12.45-19.367c8.3-1.384,12.45-35.967,15.22-42.883,6.91-5.534,13.83-11.067,22.13-13.834,1.38,0,5.53,0,5.53,1.384,0,2.766-5.53,5.533-6.91,6.916,0,34.584-11.07,11.067-11.07,27.667l11.07,2.767,5.53-5.534c0-19.366,8.3-15.216,8.3-27.666l9.68-5.534c2.77-5.533,6.92-11.066,6.92-17.983,0-2.767-2.77-4.15-5.53-4.15-6.92,0-5.54,4.15-5.54,9.683,0,1.384-1.38,4.15-4.15,4.15,1.39-5.533,0-11.066-6.91-11.066-4.15,0-1.39-6.917-1.39-9.684,0-1.383-1.38-4.15-4.15-4.15-5.53,0-6.91,6.917-12.45,5.534,0,5.533-9.68,24.9-11.06,29.05h-2.77c-9.68,0-15.22,29.05-24.9,37.35a10.405,10.405,0,0,1-6.92,9.683l1.39,6.916c0,2.767-6.92,2.767-8.3,2.767l-9.69,8.3c-4.15,0-5.53,1.384-5.53,5.534,0,2.766-2.77,2.766-5.53,2.766,0,5.534-1.39,13.833-5.54,17.984h-1.38l-31.82-1.384,5.54-5.533v-9.683c4.15-4.15,6.91-9.684,6.91-15.217,1.39-15.217,11.07-4.15,11.07-19.367-4.15-2.766-5.53-8.3-5.53-12.45s2.76-11.066,5.53-13.833c1.38-8.3,6.92-15.217,6.92-24.9,5.53,0,6.91-4.15,6.91-8.3a51.767,51.767,0,0,0-6.91-24.9l8.3-5.533v-8.3c0-4.15-5.54-6.917-8.3-6.917-4.15,5.533-15.22,23.517-20.75,24.9-2.77,35.967-19.371,26.283-20.754,40.117,0,1.383,0,12.45-2.767,12.45-2.766-5.534-5.533-12.45-5.533-17.984,0-6.916,12.45-11.066,17.984-12.45l-1.38-15.216c-24.9,2.766-30.437,42.883-44.271,58.1,1.384-4.15-1.383-8.3-5.533-6.917,1.383-5.533,2.767-11.067,6.917-15.217v-2.766c0-2.767,2.766-6.917,5.533-6.917,6.917-6.917,9.683-29.05,11.067-37.35h6.916c6.917,0,5.534-9.683,5.534-15.217l6.916-1.383C1007,187.347,1013.92,166.6,1015.3,147.231l4.15-4.15,1.39-9.684,5.53-9.683c0-4.15,1.38-9.683,5.53-11.067,0-4.15,1.39-9.683,5.54-12.45V98.814c0-4.15,4.15-6.917,8.3-6.917V89.131c0-4.15,1.38-8.3,5.53-11.067,0-5.533,4.15-5.533,4.15-15.217,4.15-1.383,5.53-6.917,6.92-11.067,2.76-4.15,5.53-8.3,5.53-12.45,0-5.533-4.15-6.917-8.3-6.917l-12.45,20.75c-1.38,5.533-5.53,23.517-12.45,23.517L1023.6,98.814l-12.45,4.15-5.53,13.833c1.38,0,11.07,4.15,11.07,5.534s-4.15,1.383-4.15,1.383c-8.3,0-8.3,0-6.92,8.3-8.3,9.683-17.984,27.667-17.984,40.117l-6.917,9.683H973.8c-5.534,0-4.15,5.533-4.15,9.683-4.15,0-5.534,1.384-5.534,5.534s-2.766,4.15-5.533,4.15c0,11.066-9.683,13.833-17.983,17.983,0,9.683-5.534,16.6-5.534,26.283C915.7,264.814,899.1,298.014,892.186,324.3l-8.3,9.684c-1.383,5.533-1.383,12.45-5.533,17.983v1.383c-8.3-2.767-16.6-2.767-24.9-2.767l-76.084,2.767c-13.833,0-26.283,6.917-40.116,2.767-17.984,8.3-38.734-1.383-51.184,4.15-4.15,8.3-16.6,2.767-23.516,2.767l-13.834,1.383-12.45,8.3C612.753,375.481,592,374.1,568.486,374.1c-4.15,0-9.683,2.767-12.45,5.534-20.75,1.383-55.333,4.149-76.083,9.683l-11.067,8.3h-4.15c-4.15,0-17.983,0-17.983,6.917-5.533,2.766-12.45,1.383-17.984,0-17.983,8.3-70.549,16.6-91.3,16.6-6.917,0-11.067,6.916-9.684,12.45-11.067,1.383-24.9,8.3-33.2,8.3-2.766,0-6.917,0-9.683,2.766l-34.584,13.834H229.57c-6.917,0-27.667,0-26.284,11.066L185.3,476.464h-6.917c-9.683,4.15-11.067,4.15-22.133,4.15-6.917,0-5.534,6.917-5.534,13.833,0,4.15,2.767,4.15,6.917,4.15l4.15-5.533,105.133-4.15,5.534-5.534c41.5,0,80.233-11.066,120.35-11.066,1.383,1.383,2.766,4.15,5.533,4.15s2.767-2.767,2.767-5.533l53.95-1.384a9.34,9.34,0,0,1,5.533,8.3c0,1.384-17.983,2.767-22.133,2.767-11.067,0-22.134,2.766-33.2,5.533,23.516,1.384,47.033-1.383,70.55-2.767,2.766,0,6.916,2.767,4.15,5.534,1.383,0,5.533,1.383,5.533,2.767s-20.75,1.383-20.75,8.3c-15.217,2.766-31.817,6.916-48.417,6.916l9.684,4.15h1.383c6.917,0,6.917,5.533,13.834,6.917,0,5.533-12.451,5.533-15.217,5.533-13.834,0-31.817,5.534-44.267,4.15L354.069,540.1c0,5.534,5.534,6.917,9.684,6.917,5.533,0,24.9-1.383,26.283-8.3,58.1,0,127.267-13.833,182.6-22.134,44.267-5.533,94.067-2.766,138.333-5.533l5.534,2.767c-20.75,2.766-42.883,5.533-63.634,4.15L650.1,523.5l89.917,4.15c9.683,0,9.683,8.3,16.6,8.3a9.342,9.342,0,0,1,5.533,8.3c0,1.384-2.767,1.384-4.15,1.384-8.3,2.766-15.217,5.533-22.134,9.683v5.533l-29.049,1.384c4.149,4.15,37.349,27.666,37.349,9.683,2.767,1.383,16.6,6.917,16.6,9.683,0,5.534-26.283,0-30.433,0l-5.533,4.15,11.066,6.917a24.009,24.009,0,0,0,19.367-4.15c1.384,0,4.15,2.767,4.15,4.15s-2.766,1.383-4.15,1.383c-1.383,6.917-6.917,8.3-8.3,17.984l-5.533,8.3c-6.917,5.533-1.383,19.366-9.684,24.9-1.383,8.3-19.366,23.516-19.366,35.966l-11.067,11.067c-1.383,8.3-1.383,22.133-12.45,22.133-1.383,4.15-1.383,15.217,5.533,15.217-26.283,13.833-29.05,48.416-41.5,74.7l-1.383,24.9c-13.833,0,5.534,11.067-19.367,11.067-2.766,0-2.766,4.149-2.766,6.916h-1.384c-9.683,0,1.384,24.9-9.683,27.667,1.383,2.766,4.15,5.533,4.15,9.683,0,8.3-11.067-5.533-12.45,11.067-1.383,12.45-9.683,37.35-23.517,33.2,0,12.45-12.449,33.2-20.75,41.5L540.82,980c-4.151,8.3-4.151,5.534-13.834,4.15a110.145,110.145,0,0,0-23.517,20.753c0,6.91-6.916,5.53-11.066,5.53-9.684,0-8.3,20.75-20.75,20.75-9.684,0-22.134,9.68-30.433,8.3l-20.751,8.3v8.3c-9.683,2.77-22.133,4.15-31.816,1.38-2.767,1.39-23.517,9.69-23.517,12.45,0,1.39,9.684,5.54,11.067,5.54l-13.833,8.3c-19.367-1.39-47.034,11.06-60.867,24.9l-2.767,8.3c-4.15,1.38-15.217,16.6-19.366,9.68-12.451,4.15-29.051,8.3-37.35,19.37h-8.3l-17.983,6.91c-1.383-2.76-4.15-2.76-6.916-2.76l-4.15,1.38c-4.151-4.15-15.217,0-15.217,5.53,0,6.92,6.917,12.45,12.45,16.6l8.3-9.68,8.3,2.77c4.15-1.39,4.15,1.38,6.917,1.38l20.75-8.3,9.683,8.3c-16.6,5.53-74.7,23.52-85.767,23.52-5.533,0-22.133,15.21-24.9,5.53-2.766,1.38-40.116,15.22-41.5,20.75,24.9,0,59.484-22.13,84.383-12.45,2.767-1.38,27.667-16.6,24.9-6.92l31.816-12.45h4.15l12.45-1.38c2.767-1.38,8.3-2.77,11.067,0a27.856,27.856,0,0,1,15.216-4.15v-1.38c6.917-1.39,13.834-2.77,20.751-5.54,1.383,1.39,2.766,2.77,4.15,2.77s2.766-1.38,4.149-2.77l24.9-8.3a2.973,2.973,0,0,0,2.766,2.77c6.917,0,17.984-12.45,22.133-2.77,13.834-5.53,27.667-9.68,42.884-9.68H426c-2.767,1.38-2.767,4.15-2.767,6.92l1.384,4.15,12.45,2.76c6.916-2.76,42.883-11.06,48.416-11.06h5.534c0,6.91,0,17.98-9.684,17.98-1.383-1.38-2.767-5.53-5.533-5.53-1.383,0-1.383,5.53-1.383,5.53l-4.151,2.77-1.383,13.83-6.917,13.83h1.384c4.15,0,4.15,6.92,4.15,9.69-9.683,0-11.067,20.75-11.067,27.66l-6.917,11.07c-1.383,5.53-5.533,8.3-6.916,13.83-4.15,6.92-12.45,17.99-13.834,26.29l-9.683,8.3c0,5.53-5.533,8.3-5.533,13.83-4.15,2.77-5.533,9.68-5.533,13.83-2.767,2.77-19.367,42.89-19.367,49.8L376.2,1411.6c-4.15,4.15-5.533,9.68-5.533,15.21l-5.534,9.69c0,5.53-5.533,5.53-5.533,12.45l-5.534,11.06c0,11.07-6.916,19.37-8.3,29.05-6.917,5.54-17.984,51.19-22.134,60.87-8.3,6.92-12.45,34.58-20.75,38.73l-11.066,24.9c0,4.15,2.766,15.22,2.766,15.22,1.384,0,1.384-2.77,1.384-2.77,12.45-6.91,44.266-56.71,53.949-71.93,0-8.3,11.067,0,11.067-11.07l5.533-8.3H367.9c5.533,0,0-9.68,12.45-8.3l12.45-27.66c19.366,0,30.433-47.04,41.5-47.04,0-11.06,48.416-45.65,30.433-47.03,1.383-2.77,4.15-15.22,6.917-15.22s6.916,4.15,8.3,6.92c0-5.53,4.15-11.07,5.533-16.6,11.067-5.53,16.6-6.92,16.6-20.75l11.067-16.6,4.15,5.53c-6.917-1.38-6.917,6.92-5.534,11.07-6.916,0-4.149,5.53-4.149,9.68s-1.384,5.54-5.534,5.54l-6.917,26.28-16.6,22.13,1.384,8.3c0,5.54-1.384,12.45-8.3,12.45,0,13.84-11.067,15.22-11.067,30.44L442.6,1495.98l4.15,16.6c12.45,0,0-11.07,13.833-11.07,9.683,0,8.3-13.83,9.683-19.36l6.917-9.69h9.683l5.534-12.45c0-11.06,11.066-15.21,12.45-26.28,9.683,0,0-11.07,11.066-9.68,0-1.39,0-5.54,2.767-5.54s5.534,4.15,6.917,6.92c0-5.53,2.766-11.07,6.916-13.83,0-11.07,6.917-8.3,15.217-8.3,9.684,0,8.3-20.75,19.367-19.37,0-6.92,5.533-9.68,5.533-16.6l22.133-35.97-4.149-17.98,11.066,6.92c0-6.92,6.917-8.3,12.45-8.3,12.45,0,24.9,8.3,24.9,22.13a32.95,32.95,0,0,0-8.3,15.22c2.767,1.38,5.533,5.53,5.533,8.3s-2.766,2.76-4.15,2.76c-2.766,6.92-9.683,26.29-17.983,26.29v2.76c0,1.39,0,5.54,2.767,5.54,4.15,0,11.066-8.3,13.833-12.45,0-11.07,16.6-12.45,16.6-24.9,12.45-8.3,23.517-17.99,34.583-27.67l5.534-12.45,11.066-11.07c1.384-6.91,6.917-8.3,6.917-13.83,6.917-5.53,11.067-13.83,15.217-22.13,1.383-6.92,6.916-6.92,6.916-15.22,0-6.92-8.3,1.38-9.683,2.77,5.534-11.07,12.45-26.29,22.134-35.97l5.533,2.77,6.916-9.69c1.384-2.76,22.134-51.18,27.667-51.18l4.15-4.15,6.917,4.15c0-16.6,13.833-17.98,27.666-23.52,17.984,0,9.684,15.22,37.35,6.92,2.767,1.38,16.6,4.15,16.6,5.53,0,4.15-6.916,5.54-6.916,8.3s11.066,0,13.833-4.15c5.533,0,2.767,5.54,2.767,8.3s2.766,2.77,4.15,2.77l15.216,6.92c2.767,5.53,33.2,33.2,41.5,33.2,2.767,0,0-6.92,4.15-6.92s12.45,13.83,15.217,17.98c1.383,6.92,5.533,22.14,13.833,22.14l19.367,23.51c0,9.69,17.984,12.45,19.364,22.14l27.67,16.6v1.38c0,13.83,9.68,1.38,15.22,1.38,1.38,0,1.38,1.39,1.38,2.77l2.77,5.53-4.15,5.54c-2.77,0-12.45,1.38-12.45,4.15s5.53,4.15,6.91,5.53v6.92l8.3,6.91c0,15.22,11.07,2.77,11.07,16.6a7.6,7.6,0,0,0,4.15,6.92l9.68,9.68c0,4.15,1.39,9.69,5.54,11.07,0,9.68,17.98,26.28,23.51,34.58l2.77,13.84c12.45,1.38,13.83,17.98,24.9,17.98l9.68,5.53c2.77,4.15,6.92,8.3,12.45,8.3-1.38-5.53-5.53-12.45-11.06-15.21l-5.54-9.69v-1.38l26.29,16.6v1.38c0,13.84,9.68,1.39,15.21,1.39,1.39,0,1.39,1.38,1.39,2.76l2.76,5.54-4.15,5.53c-2.76,0-12.45,1.38-12.45,4.15s5.54,4.15,6.92,5.53v6.92l8.3,6.92c0,15.21,11.07,2.76,11.07,16.6a7.6,7.6,0,0,0,4.15,6.91l9.68,9.69c0,4.15,1.38,9.68,5.53,11.06,0,9.69,17.99,26.29,23.52,34.59l2.77,13.83c12.45,1.38,13.83,17.98,24.9,17.98,1.38,1.39,4.15,5.54,6.91,5.54,4.15,0,4.15-6.92,4.15-8.3,0-4.15-1.38-8.3-5.53-8.3-4.15-4.15-5.53-13.84-5.53-19.37l-5.54-4.15,6.92-4.15c0-1.38,1.38-4.15,2.77-4.15,8.3,0,31.81,31.82,33.2,33.2,11.06,1.38,44.26,29.05,45.65,29.05,1.38,4.15,6.91,16.6,12.45,16.6l4.15-9.68-9.69-11.07c0-15.22-20.75-37.35-26.28-55.33,0,0-2.77,0-2.77-1.39,0,0,9.69-4.15,11.07-4.15,1.38-2.76,5.53-2.76,8.3-2.76,5.53,0,12.45,4.15,16.6,6.91v5.54c0,9.68,15.22-8.3,15.22,13.83,0,8.3,12.45,4.15,12.45,12.45l12.45,5.53v-2.76q0-8.31,8.3-8.3c0,5.53,1.38,5.53,6.91,5.53,2.77,0,2.77,2.77,2.77,5.53,5.53,0,9.68,5.54,15.22,6.92,8.3,12.45,20.75,20.75,30.43,33.2,2.77,0,9.68,1.38,9.68,5.53,8.3,8.3,12.45,19.37,15.22,29.05l5.53,2.77,1.39,4.15,4.15-1.38v2.76c0,4.15,1.38,9.69,5.53,11.07l5.53,11.07,9.69,8.3v1.38c0,5.53,5.53,11.07,9.68,13.83,0,6.92,5.53-1.38,6.92-2.76,12.45,0,13.83,15.21,24.9,15.21v1.39c0,12.45,15.21,9.68,13.83,22.13l11.07,9.68c0,4.15,0,11.07,4.15,15.22,8.3,1.38,23.51,1.38,17.98,13.83,4.15,11.07,9.68,24.9,17.98,33.2,1.39,0,11.07-4.15,11.07-5.53h-2.77c-8.3-12.45-16.6-27.67-20.75-42.88,0-8.3-6.91-16.6-12.45-22.14-8.3-1.38-5.53-12.45-4.15-17.98l-9.68-9.68c0-4.15-1.38-9.69-5.53-11.07-5.54,0-5.54-6.92-4.15-11.07l-8.3-11.06c0-12.45-22.14-26.29-22.14-33.2-2.76-8.3-8.3-15.22-13.83-22.14v-1.38c0-5.53-5.53-2.77-4.15-9.68-5.53-1.39-8.3-5.54-6.92-11.07-4.15-8.3-8.3-17.98-8.3-27.67l-11.06-11.06c0-6.92-5.54-9.69-11.07-8.3l-12.45-13.84c0-37.35-11.07-11.06-11.07-31.81l-9.68-6.92-5.53-16.6,1.38-19.37c-5.53-4.15-12.45-12.45-15.22-19.36v-2.77s0-2.77-1.38-2.77c-6.92,0,0,15.22-9.68,15.22h-4.15l-5.54-12.45,1.39-12.45-11.07-24.9-8.3-8.3,1.38-15.22c-15.21-6.91-33.2-22.13-33.2-40.11,0-5.54-15.21-13.84-15.21-22.14-12.45-1.38-9.69-2.76-9.69-13.83,0-4.15-2.76-4.15-5.53-4.15h-9.68c0,1.38,0,9.68-4.15,9.68-1.39,0-2.77-2.76-2.77-4.15l-4.15-2.76,12.45-8.3c-4.15-1.39-5.53-6.92-5.53-11.07-13.84,0-11.07-1.38-11.07-13.83l-19.37-26.29-12.45,9.69a33.014,33.014,0,0,1,8.3-15.22c-4.15-1.38-5.53-5.53-5.53-9.68-4.15-1.39-15.22-6.92-19.37-5.54l-8.3-5.53v-2.77a128.4,128.4,0,0,0-19.36-19.36c0-20.75-15.22-20.75-15.22-31.82-12.45-1.38-9.68-2.77-9.68-13.83,0-4.15-2.77-4.15-5.54-4.15h-9.68c0,1.38,0,9.68-4.15,9.68-1.38,0-2.77-2.77-2.77-4.15-1.38,0-5.53,0-5.53-2.77s11.07-6.91,13.83-8.3c-4.15-1.38-5.53-6.91-5.53-11.06-13.83,0-11.07-1.39-11.07-13.84l-19.36-26.28-12.45,9.68a32.94,32.94,0,0,1,8.3-15.21c-4.15-1.39-5.54-5.54-5.54-9.69-6.91-2.76-13.83-5.53-20.75-5.53-5.53,0-6.91-2.77-6.91-8.3-5.54-6.92-20.75-30.43-29.05-31.82l-12.45-11.06c1.38-5.54,6.91-6.92,11.06-5.54,6.92-4.15,15.22-8.3,23.52-8.3,4.15,0,4.15,2.77,4.15,6.92,0,0,0,2.77,1.38,2.77,2.77,0,8.3-12.45,9.69-15.22a10.4,10.4,0,0,0,9.68-6.92l13.83-4.15c5.54-8.3,9.69-5.53,17.99-5.53,4.15,0,6.91-2.77,5.53-6.92,4.15,0,17.98-1.38,17.98-6.91-4.15-5.536-30.43-2.769-13.83-12.453-9.68,2.767-26.28,1.384-35.97,0l-6.91,5.533-4.15-5.533-15.22,9.684c-9.68,0,1.38,5.529,1.38,8.3s-4.15,1.38-5.53,1.38c0-4.15-2.77-4.15-6.92-4.15-5.53,0-13.83,2.77-19.36,5.54-6.92-1.39-19.37-5.54-24.9,1.38l-1.39-8.3h2.77c4.15,0,8.3-1.38,8.3-5.533h15.22c1.38-12.45,23.51-13.833,33.2-12.45,9.68-6.917,22.13-12.45,34.58-16.6v1.384c0,8.3,26.28,1.383,24.9,15.216l16.6,6.917,8.3,11.066c6.92-6.916,12.45-15.216,17.98-23.516,1.39-13.833,17.99-9.683,17.99-17.984,2.76,0,8.3,0,8.3-4.149l5.53,5.533c0,1.383,2.77,5.533,4.15,5.533,2.77,0,2.77-4.15,2.77-5.533,4.15,1.383,12.45,4.15,12.45-2.767h-5.54c-5.53,0-12.45-1.383-12.45-8.3l22.14-9.683c9.68,0,22.13-6.917,22.13-17.983-4.15-2.767-24.9-15.217-24.9-4.15h-1.38c-5.54,0-11.07-2.767-11.07-8.3l16.6-6.916h5.53c12.45,0,0-17.983,40.12-20.75l11.07-5.534,4.15,8.3-11.07,9.683H1330.7c-1.38,5.533-4.15,11.067-8.3,13.833-1.38,0-5.53,0-5.53,2.767s4.15,5.533,5.53,6.917c9.69-8.3,22.14-13.834,33.2-17.984,1.39-5.533,6.92-11.066,12.45-13.833h16.6l20.75-16.6c0-2.767,1.39-5.533,4.15-5.533,6.92,0,12.45,9.683,20.75,9.683,2.77,0,2.77-2.767,2.77-5.533,20.75-20.75,106.52-76.084,106.52-94.067,17.98-8.3,23.51-34.583,40.11-42.883l1.39-8.3c4.15-2.767,5.53-9.684,5.53-13.834l4.15-4.15c0-20.75,2.77-35.966,6.92-56.716-5.54,0-6.92-5.534-5.54-9.684-6.91,0,1.39-9.683,2.77-11.066-4.15-6.917-9.68-16.6-9.68-24.9-12.45-8.3-20.75-22.134-33.2-30.434,0-1.383,1.38-6.916,2.76-6.916s1.39,6.916,1.39,6.916c5.53,1.384,9.68,9.683,12.45,11.067,2.76-4.15,2.76-8.3,2.76-12.45l-15.21-24.9-24.9-12.45L1521.6,523.5l-6.91,4.15-8.3-9.683c-11.07,0-13.84-11.067-17.99-19.367-5.53,0-12.45-1.383-16.6-4.15l5.54-5.533-8.3-5.534c-8.3,0-5.54,4.151-1.39,8.3l-15.21-5.534-5.54-8.3h5.54c0,1.384,0,5.533,1.38,5.533,2.77,0,6.92-2.766,8.3-5.533-6.92-9.683-19.37-2.766-27.67-2.766-5.53,0-15.21,0-15.21-6.917l16.6-4.15-11.07-9.683-13.83-1.384-1.39-5.533c-2.76-4.15-9.68-5.533-15.21-5.533,0,2.766-1.39,5.533-5.54,5.533C1386.04,447.414,1383.27,443.264,1383.27,440.5ZM962.736,721.314h22.133c0-6.917-1.383-34.583,12.45-20.75l4.151-8.3v-9.683l12.45-12.45c4.15-9.684,8.3-19.367,11.07-30.434h2.76c8.3,0,8.3-4.15,8.3-9.683,0-4.15,1.39-8.3,5.54-8.3,0-6.917,1.38-13.833,9.68-13.833,58.1,0,105.13,19.366,160.47,23.516v2.767c0,16.6,27.66,4.15,27.66,23.517l16.6,2.766s0-4.15,1.39-4.15c2.76,0,6.91,13.834,8.3,16.6l-19.37,26.284-12.45-1.384-2.77,4.15c-5.53,0-4.15,4.15-4.15,6.917,0,11.067-19.36,13.833-29.05,13.833-6.91,0,0,11.067-9.68,8.3l-11.07,4.15c-5.53-1.383-11.06,0-11.06,6.917-4.15,0-8.3,1.383-9.69,5.533l-13.83,8.3c-12.45,0-31.82,8.3-41.5,15.217h-2.77c-2.76,0-4.15,1.383-4.15,4.15h-9.68l-1.38,11.067-20.75,2.766-9.69,8.3h-2.76c-2.77,0-6.92,0-9.69,2.767-11.06,0-5.53,0-5.53,5.533l-1.38,4.15-16.6-4.15c0,9.684,0,9.684-9.69,9.684-6.91,2.766-13.831,5.533-19.364,9.683-1.383,4.15-5.533,5.533-9.683,5.533l-9.684,8.3c-9.683,2.767-40.116,15.217-51.183,15.217-1.383,0-5.533-1.383-5.533-2.767,0-2.766,4.15-4.15,5.533-5.533,0-5.533,2.767-6.917,8.3-6.917s5.533-12.45,6.917-16.6c1.383,0,5.533,0,5.533-2.766s-4.15-6.917-6.917-8.3l5.534-11.066c13.833,0,13.833-11.067,17.983-20.75L957.2,780.8c4.15,0,2.766-9.683,2.766-12.45,12.45-6.917-5.533-19.366,16.6-19.366l2.767-15.217h-2.767c-11.066,0-11.066,9.683-23.516,6.917l-9.684,11.066c-6.916,0-6.916,8.3-5.533,12.45l-11.067,9.684c-1.383,0-5.533,0-5.533-2.767s4.15-6.917,5.533-8.3c0-44.267,37.35-52.567,37.35-74.7,13.834-8.3,11.067-29.05,23.517-29.05l5.533,9.683c-1.383,12.45-12.45,13.834-12.45,24.9l-12.45,13.834C968.269,711.631,966.886,718.547,962.736,721.314Zm506.3,71.933c9.68-12.45,24.9-31.817,38.73-40.116,8.3,0,2.77-11.067,13.83-9.684,9.69-5.533,22.14-16.6,27.67-26.283,1.38-1.383,8.3-24.9,13.83-24.9,1.39,0,1.39,1.383,1.39,2.767,2.76,2.766,6.91,6.916,6.91,11.066,0,1.384-1.38,2.767-2.76,4.15h-2.77c-2.77,0-1.38,4.15-1.38,5.534,0,2.766-2.77,1.383-4.15,1.383l-9.69,11.066c-4.15,0-4.15,2.767-4.15,5.534s-1.38,4.15-4.15,4.15c-13.83,13.833-30.43,27.667-41.5,44.267L1471.8,794.63h-1.38c-5.53,0,1.38,6.917,2.77,6.917a256.24,256.24,0,0,0-38.74,38.734c0,9.683-8.3,6.916-15.21,5.533l-12.45,4.15c0-6.917,5.53-6.917,5.53-13.833l-9.68,2.766c-1.39,1.384-2.77,5.533-5.54,5.533-1.38,0-1.38-2.766-1.38-2.766,0-8.3,2.77-8.3,9.68-8.3l4.15-5.534,4.15,6.917,8.3-5.533-8.3-13.833,6.92-4.151,9.68,11.067c0,1.384,1.39,6.917,4.15,6.917,1.39,0,1.39-2.767,1.39-4.15,16.6,0,13.83-5.533,12.45-20.75C1453.82,800.164,1462.12,793.247,1469.04,793.247ZM1258.77,938.5c-8.3,0-16.6,4.15-20.75,11.067h-1.38c-8.3,0-8.3,9.683-16.6,9.683-4.15,2.767-11.07,5.534-16.6,5.534-2.77,0-5.54,0-5.54-4.151v-1.383l5.54-5.533c2.76,0,8.3-1.383,8.3-5.533,1.38-1.384,42.88-24.9,47.03-24.9,0,1.383,0,8.3,4.15,6.916ZM691.6,1229c5.533,2.76,11.066,8.3,11.066,15.21,0,12.45-23.516,30.44-30.433,41.5l-11.067-1.38v-9.68l27.667-23.52ZM914.319,801.547l11.067-1.383c0,2.767-1.383,8.3-5.533,8.3l-11.067,12.45-5.533,16.6a58.848,58.848,0,0,1-15.217,2.767c-2.767,0-11.067-1.384-11.067-5.534l11.067-5.533c1.383-6.917,5.533-11.067,6.917-17.984l15.216,4.151C910.169,811.23,910.169,804.314,914.319,801.547Zm430.221,19.367v-2.767h5.53l-17.98,13.834c0,6.916-6.92,4.15-11.07,2.766l-6.92,11.067c-8.3,5.533-16.6,6.917-26.28,11.067l-22.13,9.683h-1.39l-2.76,1.383,13.83-13.833h2.77c2.76,0,6.91-1.383,8.3-4.15,11.06,0,24.9-15.217,31.81-20.75,2.77-4.15,8.3-4.15,12.45-4.15C1334.85,820.914,1340.39,819.531,1344.54,820.914ZM695.753,1143.23c0-1.38,0-9.68,4.15-9.68a5.945,5.945,0,0,1,5.533,5.53c0,4.15-5.533,4.15-8.3,4.15l4.15,15.22L691.6,1170.9l-2.767,15.21c-5.533,0-11.067,0-11.067-6.91,0-20.75,6.917-13.84,8.3-26.29Zm-41.5,71.93,8.3,5.54c-4.15,11.06-8.3,22.13-13.834,31.81l-5.533,1.39c-2.766,0-5.533-1.39-5.533-5.54C637.653,1240.06,650.1,1222.08,654.253,1215.16ZM1422,764.2l-12.45,5.534c-8.3,11.066-19.36,23.516-30.43,31.816h-1.38c-6.92,0-8.3,9.683-16.6,9.683,0,1.384,0,4.151-1.39,4.151s-2.76-2.767-2.76-4.151l6.91-5.533,4.15-11.067c13.84-2.766,26.29-4.149,26.29-20.749,9.68,0,9.68-9.684,20.75-9.684H1422ZM1001.47,605.114c2.77,0,13.83,1.383,13.83,2.767s-8.3,5.533-9.68,6.916l-11.067,22.134c0,2.766-2.767,6.916-5.534,6.916s-5.533-4.15-5.533-6.916l5.533-9.684C989.019,617.564,1000.09,617.564,1001.47,605.114ZM522.836,1284.33v-4.15c1.384,0,1.384,5.53,1.384,5.53,0,2.77,0,11.07-4.151,9.69L509,1314.76c-4.15,0-8.3-1.38-8.3-6.91C500.7,1300.93,514.536,1282.95,522.836,1284.33Zm15.217-816.166,59.483-1.383h1.383c0,1.383-5.533,1.383-6.916,1.383l-19.367,4.15c-5.533,1.383-20.75,5.533-26.283,5.533S538.053,473.7,538.053,468.164ZM442.6,1518.11c-5.533,5.54-13.834,13.84-13.834,22.14,0,1.38,2.767,2.76,4.15,2.76,8.3,0,15.217-11.06,15.217-19.36C448.136,1520.88,446.753,1518.11,442.6,1518.11ZM557.42,1231.76l11.066-4.15-8.3,16.6c-6.917,0-5.533,11.07-4.15,15.22-1.383-2.77-4.15-5.53-6.917-5.53s-4.15,2.76-4.15,5.53h-1.383c-4.15,0-9.683-1.38-9.683-6.92l17.983-4.15C551.886,1241.45,557.42,1238.68,557.42,1231.76Zm877.03,379.04c-9.68,0-11.06,1.38-12.45,11.06l13.84,9.69,6.91-8.3Zm-131.41-154.94,8.3,12.45-6.92,8.3-13.83-9.68C1291.97,1457.25,1293.35,1455.86,1303.04,1455.86ZM1149.49,191.5h-2.77c-11.07,0-6.92,4.15-1.38,6.917-2.77,1.383-12.45,6.917-12.45,9.683,0,1.384,2.76,1.384,2.76,1.384,2.77,2.766,6.92,5.533,9.69,5.533,4.15,0,4.15-2.767,4.15-5.533V191.5ZM1343.15,1356.26l5.54,4.15h-2.77l9.68,1.39,1.39,11.06h-19.37C1337.62,1360.41,1343.15,1361.8,1343.15,1356.26Zm125.89,171.54h19.36l-1.38-11.07c-5.53,0-9.68-2.77-13.83-2.77C1469.04,1516.73,1469.04,1523.65,1469.04,1527.8ZM864.519,862.414l11.067,6.917L864.519,880.4l-9.683,1.384V870.714C858.986,870.714,863.136,866.564,864.519,862.414Zm300.181-473.1c6.92,1.383,22.14,6.917,22.14,15.217C1174.39,404.531,1164.7,404.531,1164.7,389.314ZM1269.84,1454.48l-2.77-4.15c6.92,8.3,16.6,13.83,24.9,20.75,0,1.38,0,9.68-2.77,9.68-1.38,0-4.15-9.68-4.15-11.06C1273.99,1469.7,1269.84,1465.55,1269.84,1454.48ZM694.369,1186.11c6.917,5.54,15.217,11.07,15.217,20.75-9.683,0-15.217-2.76-15.217-12.45v-8.3ZM289.053,1154.3c0,1.38-27.667,12.45-33.2,13.83C255.853,1155.68,279.37,1154.3,289.053,1154.3ZM1149.49,191.5c2.76-1.383,11.06-6.916,11.06-11.066,0-2.767-4.15-2.767-6.91-2.767s-9.69,0-9.69,5.533C1143.95,185.964,1146.72,188.731,1149.49,191.5Zm42.88,704.117,9.68,1.383c-5.53,4.15-11.06,11.067-17.98,11.067a5.945,5.945,0,0,1-5.53-5.533Zm-579.617-373.5c0,6.917,5.533,6.917,11.067,6.917H633.5v-1.384c0-5.533-4.15-6.916-8.3-6.916ZM532.519,1292.63l6.917,9.68L533.9,1312c-2.767,0-6.917-1.39-6.917-4.15C526.986,1302.31,531.136,1298.16,532.519,1292.63ZM456.436,548.4c0,5.534,4.15,6.917,9.683,6.917l11.067-1.383a6.534,6.534,0,0,0-6.917-6.917Zm128.65-22.133c0,6.917,12.45,8.3,17.983,8.3l2.767-5.533Zm-156.317,29.05c0,6.917,11.067,6.917,15.217,6.917h2.767l2.766-5.534Zm817.551-157.7a2.974,2.974,0,0,1,2.77-2.767c4.15,0,19.36,4.15,19.36,6.917,0,1.383-1.38,1.383-2.76,1.383C1258.77,403.147,1251.85,400.381,1246.32,397.614ZM1007,383.78c-2.76-2.766-5.53-5.533-5.53-9.683s4.15-4.15,6.92-4.15c1.38,2.767,2.76,5.534,2.76,9.684Q1011.15,383.78,1007,383.78Zm372.12,482.784h11.07c0,5.533-5.54,1.383-5.54,8.3l-11.06-1.383C1373.59,866.564,1379.12,873.481,1379.12,866.564Zm-132.8,554.716h1.38c2.77,0,5.54,2.77,6.92,5.53l-1.38,5.54c-1.39,0-8.3,1.38-8.3-2.77,0-2.77,1.38-4.15,1.38-6.92v-1.38Zm-632.184-141.1h9.684v9.68C615.519,1288.48,614.136,1289.86,614.136,1280.18Zm406.7,17.98c0,9.69,1.38,15.22,12.45,15.22ZM401.1,1461.4h4.15c4.15,0,6.916,1.38,6.916,5.53l-4.149,1.38A6.53,6.53,0,0,1,401.1,1461.4Zm907.467,63.63c-2.77,0-4.15-2.77-4.15-5.53,0-1.39,0-5.54,2.77-5.54s1.38,5.54,1.38,6.92l5.53,4.15h-5.53ZM1131.5,250.981l-8.3,2.766-2.76-11.066Zm88.54,167.383,9.68,5.533c0,2.767-1.38,4.15-2.77,4.15C1222.8,428.047,1220.04,421.131,1220.04,418.364Zm279.43,109.283h4.15c1.38,0,4.15,0,4.15,1.384v1.383c-1.38,1.383-4.15,1.383-5.53,1.383-2.77,0-2.77-1.383-2.77-2.766v-1.384ZM611.369,1112.8l4.15-1.39a1.357,1.357,0,0,1,1.384,1.39c0,2.76-1.384,5.53-4.15,5.53-1.384,0-1.384-2.77-1.384-4.15v-1.38ZM1362.52,859.647l4.15-1.383a1.354,1.354,0,0,1,1.38,1.383c0,1.383,0,5.534-1.38,5.534C1363.9,865.181,1362.52,862.414,1362.52,859.647Zm-805.1,356.9h2.766c1.383,0,4.15,0,4.15,2.76a2.973,2.973,0,0,1-2.767,2.77C558.8,1222.08,557.42,1219.31,557.42,1216.55Zm802.33,161.85,2.77-1.39a2.987,2.987,0,0,1,2.77,2.77c0,1.38-1.39,4.15-2.77,4.15-2.77,0-2.77-2.77-2.77-4.15v-1.38ZM921.236,791.864L924,790.481a2.975,2.975,0,0,1,2.766,2.766c0,1.383-1.383,4.15-2.766,4.15-2.767,0-2.767-2.767-2.767-4.15v-1.383ZM575.4,1202.71l4.15,9.69c-2.767,0-5.533,0-5.533-2.77ZM453.669,1395h1.384c2.767,0,4.15,0,4.15,2.76,0,1.39,0,2.77-1.383,2.77C455.053,1400.53,453.669,1397.76,453.669,1395Zm838.3-468.953,9.68,2.767c-1.38,1.383-4.15,1.383-5.53,1.383Q1291.965,930.2,1291.97,926.047Zm27.67-121.733,9.68,1.383c-1.38,1.384-9.68,4.15-9.68,0v-1.383Zm217.18,908.846c2.77,0,5.53,0,5.53,2.77,0,1.38,0,2.77-1.38,2.77C1538.2,1718.7,1536.82,1714.55,1536.82,1713.16ZM944.753,311.847l-5.534-1.383c0-1.383,1.384-4.15,2.767-4.15,2.767,0,2.767,2.767,2.767,4.15v1.383ZM746.936,1205.48c1.383,0,1.383-1.38,2.767-1.38s1.383,1.38,1.383,2.76-1.383,4.15-2.767,4.15-1.383-2.76-1.383-2.76v-2.77Zm-65.017,98.22c1.384-5.54,1.384-5.54,6.917-5.54C687.453,1300.93,684.686,1303.7,681.919,1303.7ZM1197.9,970.314l5.54,1.383c0,1.384-1.39,4.15-2.77,4.15-2.77,0-2.77-2.766-2.77-4.15v-1.383Zm347.22-391.483,5.53,1.383c0,1.383-1.38,4.15-2.76,4.15-2.77,0-2.77-2.767-2.77-4.15v-1.383ZM1345.92,789.1l5.53,1.384c0,1.383,0,4.149-2.76,4.149C1347.3,794.63,1345.92,790.481,1345.92,789.1Zm-26.28,755.3,5.53,1.38c0,1.38,0,4.15-2.77,4.15C1321.02,1549.93,1319.64,1545.78,1319.64,1544.4Zm107.9-788.5,5.53,1.384c0,1.383,0,4.149-2.77,4.149C1428.92,761.43,1427.54,757.281,1427.54,755.9ZM1268.45,930.2l5.54,1.384c0,1.383,0,4.15-2.77,4.15C1269.84,935.731,1268.45,931.581,1268.45,930.2Zm92.69-150.783a4.814,4.814,0,0,0,2.76-1.384,2.767,2.767,0,1,1,0,5.534C1362.52,783.564,1361.14,780.8,1361.14,779.414ZM1258.77,938.5h4.15c0,1.384-1.38,5.533-4.15,5.533V938.5Zm-189.52-576.85-1.38,1.384h-2.77l-1.38-4.15h4.15C1069.25,358.881,1069.25,360.264,1069.25,361.647ZM699.9,1273.26c2.766,0,5.533,1.39,5.533,4.15h-4.15C699.9,1277.41,699.9,1274.65,699.9,1273.26Zm391.487-217.18,4.15,1.38c0,1.39,0,4.15-1.39,4.15C1091.39,1061.61,1091.39,1057.46,1091.39,1056.08ZM313.953,1146l1.383,2.76a2.973,2.973,0,0,1-2.766,2.77c-1.384,0-2.767,0-2.767-1.38ZM1391.57,855.5l4.15,1.384c0,1.383-1.38,4.149-2.77,4.149s-1.38-2.766-1.38-4.149V855.5ZM1211.74,1201.33c2.76,0,5.53,1.38,5.53,4.15h-2.77C1211.74,1205.48,1211.74,1202.71,1211.74,1201.33ZM590.62,1303.7l5.533,2.76c0,1.39,0,2.77-1.384,2.77C592,1309.23,590.62,1305.08,590.62,1303.7ZM1120.44,260.664l-5.54-1.383V257.9c0-1.383,0-1.383,1.39-1.383C1119.05,256.514,1120.44,259.281,1120.44,260.664ZM491.02,1058.85c1.383,0,4.149,0,4.149,2.76V1063h-1.383c-1.383,0-2.766,0-2.766-2.77v-1.38Zm933.75,439.9a2.978,2.978,0,0,1,2.77,2.76v1.39h-4.15C1423.39,1501.51,1424.77,1500.13,1424.77,1498.75ZM484.1,1065.76l-1.384,2.77-4.15-4.15C479.953,1064.38,482.719,1064.38,484.1,1065.76ZM300.119,1154.3v1.38a2.981,2.981,0,0,1-2.766,2.77,1.357,1.357,0,0,1-1.383-1.39ZM1330.7,1555.46h1.39a2.978,2.978,0,0,1,2.76,2.77h-1.38A2.979,2.979,0,0,1,1330.7,1555.46ZM435.686,1151.53a2.593,2.593,0,0,1,0,4.15S434.3,1151.53,435.686,1151.53Zm1195.194,20.75c-11.07,8.3-23.52,35.97-44.27,35.97l-15.21,11.06-4.15,9.69-16.6,11.06c0,4.15-1.39,9.69-5.54,12.45,0,8.3-5.53,12.45-5.53,22.14l-9.68,4.15-5.54,6.91v12.45l-11.06,11.07c-8.3,0-8.3,9.68-6.92,15.22-5.53,6.91-9.68,15.21-13.83,23.51,0,4.15-1.39,11.07-5.54,13.84,0,9.68-4.15,20.75-9.68,29.05h-1.38c-2.77,0-4.15,4.15-4.15,6.91h1.38c4.15,0,4.15,2.77,4.15,5.54,0,5.53-5.53,8.3-5.53,13.83l5.53,6.92v12.45a27.872,27.872,0,0,0,9.68,12.45l15.22,2.76,6.92,11.07c9.68,0,11.06,5.53,4.15,11.07,0,4.15,2.76,5.53,5.53,5.53,4.15,0,5.53-2.77,5.53-5.53,2.77,0,8.3-1.39,8.3-5.54l6.92-5.53c20.75,0,5.53-15.22,13.83-15.22,4.15,0,9.69,11.07,15.22,11.07,0,0,6.92-13.83,12.45-16.6l6.92-12.45c0-5.53,1.38-12.45,8.3-12.45q4.14,0,8.3,4.15c-2.77,4.15-16.6,29.05-16.6,35.97l-9.69,11.06-1.38,24.9c-2.77,1.39-6.92,5.54-6.92,8.3s2.77,2.77,4.15,2.77c4.15,0,9.69-2.77,13.84-4.15,0,0,0-6.92,1.38-6.92s4.15,4.15,4.15,5.54c5.53,0,11.07,2.76,15.22,2.76,4.15-1.38,5.53-8.3,5.53-12.45l15.22-4.15c2.76,4.15,9.68,9.69,15.21,9.69a180.308,180.308,0,0,0,13.84,20.75h9.68c12.45,0,4.15-20.75,17.98-20.75l8.3,8.3c-4.15,1.38-5.53,6.91-5.53,11.06,0,5.54,1.38,12.45,5.53,16.6,0,6.92,4.15,11.07,4.15,16.6h5.54c4.15,0,5.53,2.77,5.53,8.3,0,12.45-5.53,34.59-6.92,49.8,1.39-6.91,6.92-11.06,13.84-11.06,0-4.15,6.91-4.15,9.68-4.15l4.15-6.92,12.45-8.3,4.15-13.83,9.68-11.07v-1.38c0-4.15,1.39-11.07,6.92-11.07l9.68-12.45c0-5.53,1.39-9.68,5.54-13.83v-5.54c0-5.53,4.15-6.91,9.68-6.91,4.15-1.39,5.53-6.92,5.53-11.07,9.69-4.15,20.75-11.07,26.29-19.37,0-6.91-5.54-12.45-5.54-19.36l11.07-2.77c0-26.28,20.75-45.65,20.75-67.78,0-13.84,11.07-6.92,11.07-16.6-2.77-1.39-5.54-4.15-5.54-6.92s4.15-2.77,5.54-2.77l2.76-11.06,8.3-5.54,5.54-11.06c0-8.3,5.53-11.07,5.53-17.99-12.45-11.06-22.13-26.28-31.82-40.11-5.53,0-11.06-4.15-9.68-9.69l-12.45-6.91c-1.38-12.45-35.97-20.75-47.03-20.75,0,1.38,0,5.53-1.39,5.53-2.76,0-4.15-4.15-5.53-5.53-17.98,0,1.38-9.69-20.75-9.69-4.15,0-9.68,0-9.68-5.53-8.3,0-16.6-13.83-30.44,0l-6.91-5.53c-11.07,0-15.22-5.54-23.52-5.54l-23.52-20.75c-5.53,0-11.06-1.38-15.21-5.53C1636.41,1176.43,1636.41,1172.28,1630.88,1172.28Zm178.45,148.02,11.07,4.15v12.45l-11.07,19.36c0,6.92-4.15,12.45-4.15,19.37l-11.07,15.22c0,1.38-1.38,4.15-2.76,4.15-4.15,0-9.69-4.15-9.69-8.3,0-2.77,5.54-2.77,6.92-2.77,0-8.3,5.53-12.45,5.53-20.75l11.07-16.6C1805.18,1336.9,1809.33,1329.98,1809.33,1320.3Zm-30.43,116.2,9.68,9.68c0,2.77-8.3,23.52-9.68,24.9,0,6.92-2.77,8.3-9.69,8.3-1.38-5.53-6.91-22.13-6.91-26.28,0-5.54,4.15-5.54,8.3-5.54C1777.51,1447.56,1778.9,1442.03,1778.9,1436.5Zm67.78-132.8c5.53,2.76,11.07,8.3,11.07,13.83h-1.39c-6.91,0-4.15,12.45-4.15,16.6,0,11.07-15.21,16.6-15.21,27.67-2.77,0-12.45-1.39-12.45-6.92,0-1.38,2.76-2.77,4.15-2.77l8.3-13.83c6.91,0,5.53-15.22,5.53-19.37C1846.68,1314.76,1846.68,1307.85,1846.68,1303.7Zm-84.38,117.58,12.45-1.38c1.38,0,4.15,0,4.15,2.76,0,1.39-4.15,4.15-5.54,5.54,0,4.15,0,8.3-5.53,8.3h-4.15Zm63.63-127.27H1837c0,6.92-5.54,1.39-5.54,8.3H1820.4C1820.4,1295.4,1825.93,1300.93,1825.93,1294.01Zm-37.35,37.35,5.53,9.69c-4.15,0-5.53-4.15-5.53-6.92v-2.77Z"/>
</svg>
